<?xml version="1.0" encoding="UTF-8"?>
<!DOCTYPE svg PUBLIC "-//W3C//DTD SVG 1.1//EN" "http://www.w3.org/Graphics/SVG/1.1/DTD/svg11.dtd">
<!-- Creator: CorelDRAW 2020 (64-Bit) -->
<svg xmlns="http://www.w3.org/2000/svg" xml:space="preserve" width="1000px" height="300px" version="1.1" style="shape-rendering:geometricPrecision; text-rendering:geometricPrecision; image-rendering:optimizeQuality; fill-rule:evenodd; clip-rule:evenodd"
viewBox="0 0 1000 300"
 xmlns:xlink="http://www.w3.org/1999/xlink"
 xmlns:xodm="http://www.corel.com/coreldraw/odm/2003">
 <defs>
  <style type="text/css">
   <![CDATA[
    .fil1 {fill:none}
    .fil0 {fill:#009BFF}
    .fil2 {fill:#009BFF}
    .fil4 {fill:#2F2F2F}
    .fil3 {fill:#2F2F2F}
    .fil171 {fill:#009AFD;fill-rule:nonzero}
    .fil172 {fill:#009AFE;fill-rule:nonzero}
    .fil173 {fill:#009BFE;fill-rule:nonzero}
    .fil174 {fill:#009BFF;fill-rule:nonzero}
    .fil5 {fill:#009BFF;fill-rule:nonzero}
    .fil163 {fill:#0198F8;fill-rule:nonzero}
    .fil164 {fill:#0198F9;fill-rule:nonzero}
    .fil165 {fill:#0198FA;fill-rule:nonzero}
    .fil166 {fill:#0199FA;fill-rule:nonzero}
    .fil167 {fill:#0199FB;fill-rule:nonzero}
    .fil168 {fill:#0199FC;fill-rule:nonzero}
    .fil169 {fill:#019AFC;fill-rule:nonzero}
    .fil170 {fill:#019AFD;fill-rule:nonzero}
    .fil157 {fill:#0295F4;fill-rule:nonzero}
    .fil158 {fill:#0296F5;fill-rule:nonzero}
    .fil159 {fill:#0296F6;fill-rule:nonzero}
    .fil160 {fill:#0297F6;fill-rule:nonzero}
    .fil161 {fill:#0297F7;fill-rule:nonzero}
    .fil162 {fill:#0297F8;fill-rule:nonzero}
    .fil152 {fill:#0393F0;fill-rule:nonzero}
    .fil153 {fill:#0394F1;fill-rule:nonzero}
    .fil154 {fill:#0394F2;fill-rule:nonzero}
    .fil155 {fill:#0395F3;fill-rule:nonzero}
    .fil156 {fill:#0395F4;fill-rule:nonzero}
    .fil148 {fill:#0491EC;fill-rule:nonzero}
    .fil149 {fill:#0492ED;fill-rule:nonzero}
    .fil150 {fill:#0492EE;fill-rule:nonzero}
    .fil151 {fill:#0493EF;fill-rule:nonzero}
    .fil143 {fill:#058EE7;fill-rule:nonzero}
    .fil144 {fill:#058FE8;fill-rule:nonzero}
    .fil145 {fill:#0590E9;fill-rule:nonzero}
    .fil146 {fill:#0590EA;fill-rule:nonzero}
    .fil147 {fill:#0590EB;fill-rule:nonzero}
    .fil138 {fill:#068CE3;fill-rule:nonzero}
    .fil139 {fill:#068DE3;fill-rule:nonzero}
    .fil140 {fill:#068DE4;fill-rule:nonzero}
    .fil141 {fill:#068EE5;fill-rule:nonzero}
    .fil142 {fill:#068EE6;fill-rule:nonzero}
    .fil133 {fill:#078ADE;fill-rule:nonzero}
    .fil134 {fill:#078ADF;fill-rule:nonzero}
    .fil135 {fill:#078BE0;fill-rule:nonzero}
    .fil136 {fill:#078BE1;fill-rule:nonzero}
    .fil137 {fill:#078CE2;fill-rule:nonzero}
    .fil129 {fill:#0888DA;fill-rule:nonzero}
    .fil130 {fill:#0888DB;fill-rule:nonzero}
    .fil131 {fill:#0889DC;fill-rule:nonzero}
    .fil132 {fill:#0889DD;fill-rule:nonzero}
    .fil124 {fill:#0985D5;fill-rule:nonzero}
    .fil125 {fill:#0986D6;fill-rule:nonzero}
    .fil126 {fill:#0986D7;fill-rule:nonzero}
    .fil127 {fill:#0987D8;fill-rule:nonzero}
    .fil128 {fill:#0987D9;fill-rule:nonzero}
    .fil120 {fill:#0A83D1;fill-rule:nonzero}
    .fil121 {fill:#0A84D2;fill-rule:nonzero}
    .fil122 {fill:#0A84D3;fill-rule:nonzero}
    .fil123 {fill:#0A85D4;fill-rule:nonzero}
    .fil116 {fill:#0B81CD;fill-rule:nonzero}
    .fil117 {fill:#0B82CE;fill-rule:nonzero}
    .fil118 {fill:#0B82CF;fill-rule:nonzero}
    .fil119 {fill:#0B83D0;fill-rule:nonzero}
    .fil112 {fill:#0C7FC9;fill-rule:nonzero}
    .fil113 {fill:#0C7FCA;fill-rule:nonzero}
    .fil114 {fill:#0C80CB;fill-rule:nonzero}
    .fil115 {fill:#0C80CC;fill-rule:nonzero}
    .fil108 {fill:#0D7DC4;fill-rule:nonzero}
    .fil109 {fill:#0D7DC5;fill-rule:nonzero}
    .fil110 {fill:#0D7EC7;fill-rule:nonzero}
    .fil111 {fill:#0D7EC8;fill-rule:nonzero}
    .fil104 {fill:#0E7AC0;fill-rule:nonzero}
    .fil105 {fill:#0E7BC1;fill-rule:nonzero}
    .fil106 {fill:#0E7BC2;fill-rule:nonzero}
    .fil107 {fill:#0E7CC3;fill-rule:nonzero}
    .fil100 {fill:#0F78BB;fill-rule:nonzero}
    .fil101 {fill:#0F78BC;fill-rule:nonzero}
    .fil102 {fill:#0F79BD;fill-rule:nonzero}
    .fil103 {fill:#0F7ABF;fill-rule:nonzero}
    .fil96 {fill:#1075B6;fill-rule:nonzero}
    .fil97 {fill:#1076B8;fill-rule:nonzero}
    .fil98 {fill:#1077B9;fill-rule:nonzero}
    .fil99 {fill:#1077BA;fill-rule:nonzero}
    .fil92 {fill:#1173B2;fill-rule:nonzero}
    .fil93 {fill:#1174B3;fill-rule:nonzero}
    .fil94 {fill:#1174B4;fill-rule:nonzero}
    .fil95 {fill:#1175B5;fill-rule:nonzero}
    .fil89 {fill:#1271AE;fill-rule:nonzero}
    .fil90 {fill:#1272AF;fill-rule:nonzero}
    .fil91 {fill:#1272B1;fill-rule:nonzero}
    .fil85 {fill:#136FA9;fill-rule:nonzero}
    .fil86 {fill:#136FAB;fill-rule:nonzero}
    .fil87 {fill:#1370AC;fill-rule:nonzero}
    .fil88 {fill:#1370AD;fill-rule:nonzero}
    .fil81 {fill:#146CA4;fill-rule:nonzero}
    .fil82 {fill:#146DA6;fill-rule:nonzero}
    .fil83 {fill:#146DA7;fill-rule:nonzero}
    .fil84 {fill:#146EA8;fill-rule:nonzero}
    .fil78 {fill:#156AA1;fill-rule:nonzero}
    .fil79 {fill:#156BA2;fill-rule:nonzero}
    .fil80 {fill:#156BA3;fill-rule:nonzero}
    .fil74 {fill:#16689C;fill-rule:nonzero}
    .fil75 {fill:#16689D;fill-rule:nonzero}
    .fil76 {fill:#16699E;fill-rule:nonzero}
    .fil77 {fill:#1669A0;fill-rule:nonzero}
    .fil71 {fill:#176698;fill-rule:nonzero}
    .fil72 {fill:#176699;fill-rule:nonzero}
    .fil73 {fill:#17679B;fill-rule:nonzero}
    .fil67 {fill:#186393;fill-rule:nonzero}
    .fil68 {fill:#186495;fill-rule:nonzero}
    .fil69 {fill:#186496;fill-rule:nonzero}
    .fil70 {fill:#186597;fill-rule:nonzero}
    .fil63 {fill:#19618E;fill-rule:nonzero}
    .fil64 {fill:#196190;fill-rule:nonzero}
    .fil65 {fill:#196291;fill-rule:nonzero}
    .fil66 {fill:#196292;fill-rule:nonzero}
    .fil60 {fill:#1A5F8B;fill-rule:nonzero}
    .fil61 {fill:#1A5F8C;fill-rule:nonzero}
    .fil62 {fill:#1A608D;fill-rule:nonzero}
    .fil56 {fill:#1B5C86;fill-rule:nonzero}
    .fil57 {fill:#1B5D87;fill-rule:nonzero}
    .fil58 {fill:#1B5D88;fill-rule:nonzero}
    .fil59 {fill:#1B5E8A;fill-rule:nonzero}
    .fil52 {fill:#1C5A81;fill-rule:nonzero}
    .fil53 {fill:#1C5A82;fill-rule:nonzero}
    .fil54 {fill:#1C5B83;fill-rule:nonzero}
    .fil55 {fill:#1C5B85;fill-rule:nonzero}
    .fil49 {fill:#1D587D;fill-rule:nonzero}
    .fil50 {fill:#1D587F;fill-rule:nonzero}
    .fil51 {fill:#1D5980;fill-rule:nonzero}
    .fil45 {fill:#1E5579;fill-rule:nonzero}
    .fil46 {fill:#1E567A;fill-rule:nonzero}
    .fil47 {fill:#1E567B;fill-rule:nonzero}
    .fil48 {fill:#1E577C;fill-rule:nonzero}
    .fil41 {fill:#1F5374;fill-rule:nonzero}
    .fil42 {fill:#1F5375;fill-rule:nonzero}
    .fil43 {fill:#1F5476;fill-rule:nonzero}
    .fil44 {fill:#1F5578;fill-rule:nonzero}
    .fil37 {fill:#20506F;fill-rule:nonzero}
    .fil38 {fill:#205171;fill-rule:nonzero}
    .fil39 {fill:#205272;fill-rule:nonzero}
    .fil40 {fill:#205273;fill-rule:nonzero}
    .fil33 {fill:#214E6B;fill-rule:nonzero}
    .fil34 {fill:#214F6C;fill-rule:nonzero}
    .fil35 {fill:#214F6D;fill-rule:nonzero}
    .fil36 {fill:#21506E;fill-rule:nonzero}
    .fil29 {fill:#224C66;fill-rule:nonzero}
    .fil30 {fill:#224C67;fill-rule:nonzero}
    .fil31 {fill:#224D69;fill-rule:nonzero}
    .fil32 {fill:#224D6A;fill-rule:nonzero}
    .fil25 {fill:#234A62;fill-rule:nonzero}
    .fil26 {fill:#234A63;fill-rule:nonzero}
    .fil27 {fill:#234B64;fill-rule:nonzero}
    .fil28 {fill:#234B65;fill-rule:nonzero}
    .fil21 {fill:#24475E;fill-rule:nonzero}
    .fil22 {fill:#24485F;fill-rule:nonzero}
    .fil23 {fill:#244860;fill-rule:nonzero}
    .fil24 {fill:#244961;fill-rule:nonzero}
    .fil17 {fill:#25455A;fill-rule:nonzero}
    .fil18 {fill:#25465B;fill-rule:nonzero}
    .fil19 {fill:#25465C;fill-rule:nonzero}
    .fil20 {fill:#25475D;fill-rule:nonzero}
    .fil12 {fill:#264355;fill-rule:nonzero}
    .fil13 {fill:#264356;fill-rule:nonzero}
    .fil14 {fill:#264457;fill-rule:nonzero}
    .fil15 {fill:#264458;fill-rule:nonzero}
    .fil16 {fill:#264559;fill-rule:nonzero}
    .fil8 {fill:#274151;fill-rule:nonzero}
    .fil9 {fill:#274152;fill-rule:nonzero}
    .fil10 {fill:#274253;fill-rule:nonzero}
    .fil11 {fill:#274254;fill-rule:nonzero}
    .fil6 {fill:#28404F;fill-rule:nonzero}
    .fil7 {fill:#284050;fill-rule:nonzero}
    .fil175 {fill:url(#id1)}
   ]]>
  </style>
     <clipPath id="id0" style="clip-rule:nonzero">
      <path d="M227.75 167.36c-2.53,17.22 -8.51,26.06 -18.15,26.06l-44.38 0 -14.03 84.1 -26.78 0 13.95 -84.1 -23.05 0c-25.09,65.56 -49.62,98.34 -73.59,98.34 -6.98,0 -12.85,-2.81 -17.63,-8.39 -6.03,-7.12 -9.05,-17.6 -9.05,-31.4 0,-11.75 2.25,-23.23 6.72,-34.43 7.23,-17.99 18.13,-31.32 32.79,-39.9 11.43,-6.7 25.06,-10.77 38.9,-11.08l14.05 -0.31 44.56 -116.2 36.41 0 -19.11 116.78 58.39 0.53zm-69.81 -90.6l-32.26 89.66 16.49 0.17 15.77 -89.83zm-61 116.66c-18.68,0 -31.76,5.79 -39.3,17.44 -6.21,9.71 -9.33,20.03 -9.33,30.9 0,9.27 2.25,13.91 6.72,13.91 6.19,0 13.9,-7.56 23.15,-22.63 8.13,-13.08 14.36,-26.27 18.76,-39.62zm150.23 58.27c-1.25,9.5 -4.12,16.45 -8.61,20.98 -3.15,3.25 -6.49,4.85 -10.1,4.85l-28.8 0c-7.38,0 -11.06,-5.46 -11.06,-16.33 0,-2.82 0.3,-5.96 0.82,-9.55l23.01 -159.48 26.16 0 -23.01 159.53 31.59 0zm57.34 0c-1.25,9.5 -4.11,16.45 -8.61,20.98 -3.14,3.25 -6.49,4.85 -10.1,4.85l-28.79 0c-7.39,0 -11.07,-5.46 -11.07,-16.33 0,-2.82 0.3,-5.96 0.82,-9.55l23 -159.4 26.17 0 -23 159.45 31.58 0zm137.55 -151.21c0,15.84 -5.77,27.25 -13.5,41.06 -4.66,8.32 -11.73,17.49 -21.21,27.53 3.89,14.3 6.32,31.19 6.32,42.84 0,24 -7.18,41.77 -21.56,53.3 -10.28,8.23 -22.26,12.31 -35.93,12.31l-38.94 0 26.98 -165.88 26.96 0 -22.95 140.05 3.81 0c8.74,0 16.12,-2.15 22.15,-6.45 8.95,-6.57 13.42,-17.33 13.42,-32.23 0,-4.74 -1.49,-14.3 -3.49,-20.93 -1.99,-6.62 -2.99,-11.47 -2.99,-14.46 0,-1.54 0.02,-2.59 0.16,-3.25 0.96,-4.75 3.72,-9.37 8.15,-13.91 6.17,-6.33 10.63,-12.25 13.49,-17.6 4.78,-8.94 7.68,-15.44 7.68,-27.2 0,-16.61 -5.85,-24.88 -17.58,-24.88l-87.6 0 11.52 -40.73 87.35 0c11.47,0 20.08,3.37 25.81,10.04 7.01,8.17 11.95,21.3 11.95,40.39zm45.08 151.21c-1.3,9.5 -3.99,16.45 -8.08,20.98 -2.93,3.25 -6.13,4.85 -9.58,4.85l-29.51 0c-7.13,0 -10.71,-6.45 -10.71,-19.42 0,-3.65 0.44,-7.55 1.05,-11.76l11.07 -76.66 26.86 0 -11.84 82.01 30.74 0zm102.73 0c-1.26,9.5 -4.12,16.45 -8.62,20.98 -3.14,3.25 -6.51,4.85 -10.09,4.85l-29.41 0c-6.85,0 -10.27,-5.74 -10.27,-17.16 0,-3.53 0.35,-7.4 1.04,-11.64l6.52 -45.04c-2.25,5.14 -11.22,23.13 -26.93,53.97 -3.86,7.73 -6.8,12.81 -8.79,15.18 -2.64,3.15 -5.83,4.69 -9.54,4.69l-10.93 0 26.74 -185.35 26.6 0 -16.75 116.31 42.69 -96.86 17.58 0 -26.54 59.03 5.83 0c4.55,0 9.27,4.75 8.4,16.64 -0.26,3.52 -1.59,15.11 -2.27,19.87l-6.41 44.53 31.15 0zm94.42 0c-1.05,8.28 -3.45,14.79 -7.19,19.54 -3.34,4.2 -7.18,6.29 -11.47,6.29l-41.7 0c-24.25,0 -36.39,-15.78 -36.39,-47.35 0,-20.25 4.57,-32.4 12.83,-43.89 7.14,-9.92 15.62,-14.9 25.45,-14.9l10.86 0c6.32,0 11.9,2.09 16.69,6.29 6.4,5.62 9.74,14.13 10.02,25.55 0.28,11.54 -2.72,17.3 -8.08,24.97l-24.69 0 8.39 -30.98 -15.79 0 -6.5 35.23c-0.41,2.24 -0.51,4.3 -0.51,6.12 0,8.77 3.25,13.13 9.74,13.13l58.34 0z"/>
     </clipPath>
  <linearGradient id="id1" gradientUnits="userSpaceOnUse" x1="458.88" y1="170.34" x2="458.91" y2="123.87">
   <stop offset="0" style="stop-opacity:1; stop-color:#2F2F2F"/>
   <stop offset="1" style="stop-opacity:1; stop-color:#009BFF"/>
  </linearGradient>
 </defs>
 <g id="Capa_x0020_1">
  <metadata id="CorelCorpID_0Corel-Layer"/>
  <g id="_2779454208320">
   <g>
    <path class="fil0" d="M945.49 101.97c-57.97,7.76 -17.12,93.1 -11.84,127.79 -21.89,-42.8 -65.55,-130.67 10.85,-145.53 4.89,-0.27 9.09,3.48 9.36,8.37 0.28,4.9 -3.47,9.1 -8.37,9.37z"/>
   </g>
   <path class="fil1" d="M944.99 93.1c-19.31,1.09 -35.8,20.35 -37.28,37.74 -2.07,24.25 7.95,50.4 14.43,66.52 2.39,5.94 9.25,22.24 11.51,32.4"/>
   <g>
    <path class="fil2" d="M905.88 158.72c-86.58,-1.7 -92.33,12.86 -152.41,69.39 43.2,-68.87 71.1,-84.64 152.04,-87.15 4.9,-0.11 8.96,3.79 9.07,8.69 0.1,4.91 -3.79,8.97 -8.7,9.07z"/>
   </g>
   <path class="fil1" d="M905.69 149.84c-5.5,0.11 -26.35,-0.81 -49.65,2.92 -26.16,4.18 -45.43,14.81 -66.68,34.2 -6.8,6.21 -32.19,35.3 -35.89,41.15"/>
   <g>
    <path class="fil2" d="M908.27 149.95c-6.35,56.43 -111.8,74.75 -154.42,77.59 52.59,-18.99 119.44,-29.81 154.42,-77.59z"/>
   </g>
   <path class="fil1" d="M908.27 149.95c-5.66,18.96 -21.88,30.02 -36.75,38.77 -29.71,17.49 -28.52,15.3 -69.69,27.67 -1.66,0.5 -42.75,11.41 -47.98,11.15"/>
   <g>
    <path class="fil3" d="M884.98 50.06l-1.61 -2.01c1.25,-4.31 -13.99,-2.33 -24,-4.34 12.96,-17.39 30.37,-25.61 45.2,-14.97l0.04 -0.22c5,4.12 4.66,12.28 -0.76,18.22 -5.42,5.95 -13.86,7.43 -18.87,3.32z"/>
   </g>
   <path class="fil1" d="M894.79 39.29c-0.79,-0.65 -2.57,-3.94 -8.07,-4.08 -3.34,-0.08 -16.86,2.59 -27.35,8.5"/>
   <g>
    <path class="fil2" d="M795.53 129.65c18.46,4.61 25.27,14.16 29.07,32.64 -9.92,-7.22 -18.1,-16.79 -29.97,-17 -4.32,-0.25 -7.62,-3.95 -7.37,-8.27 0.25,-4.32 3.95,-7.62 8.27,-7.37z"/>
   </g>
   <path class="fil1" d="M795.08 137.47c12.66,0.73 23.38,13.39 29.52,24.82"/>
   <g>
    <path class="fil4" d="M929.99 101.29c-45.91,-44.93 -66.05,-43.22 -110.43,8.73 -1.52,1.78 -2.41,3.22 -2.98,4.71 42.05,-0.3 102.06,-26.58 39.75,75.47l-26.18 42.49c1.38,-4.36 31.41,-93.79 31.32,-100.16 -5.83,-2.83 -25.61,1.12 -29.66,1.73 -36.89,5.52 -52.86,-10.23 -29.08,-38.32 53.91,-63.65 86.89,-60.25 127.26,5.35z"/>
   </g>
   <path class="fil1" d="M929.99 101.29c-4.19,-5.93 -12.13,-15.45 -22.14,-25.07 -7.12,-6.83 -17.08,-16.21 -27.9,-17.16 -7.03,-0.62 -16.56,2.66 -25.94,7.8 -8.16,4.46 -16.21,10.34 -22.42,16.3 -19.47,18.7 -25.94,21.72 -27.32,37.35 -1.71,19.46 87.48,-26.94 64.49,28.18 -4.9,11.74 -30.1,64.06 -38.61,84"/>
   <g>
    <path class="fil5" d="M906.97 260.86c0.37,0.6 1.05,1.46 0.29,1.94 -0.57,0.47 -0.76,1.22 -0.89,1.9 0.07,0.2 0.14,0.41 0.21,0.61 0.28,0.52 0.87,1.55 0.84,2.14 0.21,0.5 0.53,1.13 0.27,1.66 -0.62,1.24 -3.62,-0.11 -4.57,-0.41 -4.58,-1.46 -8.21,-5.63 -11.12,-9.23 -1.37,-1.16 -4.63,-7.6 -5.39,-9.39 -1.13,-2.73 -1.88,-5.15 -2.48,-8.04 -0.82,-4.39 -1,-7.96 -0.5,-12.39 0.13,-2.55 0.42,-4.89 0.9,-7.4 1.55,-7.47 3.84,-12.85 7.97,-19.28 4.23,-6.28 8.3,-10.56 14.39,-15.1 5.9,-4.16 10.95,-6.58 17.9,-8.51 6.87,-1.71 12.36,-2.09 19.38,-1.19 7.17,1.14 12.39,3.1 18.52,6.99 6,4.1 9.86,8.07 13.73,14.21 3.55,6.08 5.41,11.23 6.46,18.17 0.15,0.44 0.31,2.82 0.34,3.46 0.27,5.8 -0.18,10.37 -1.48,16.05 -1.85,7.18 -4.24,12.4 -8.37,18.57 -4.24,5.98 -8.26,10.04 -14.27,14.24 -5.74,3.78 -10.64,5.99 -17.33,7.53 -0.47,0.2 -2.69,0.51 -3.32,0.6 -5.34,0.67 -9.51,0.55 -14.77,-0.56 -5.92,-1.53 -11.3,-3.8 -15.91,-7.92 3.97,1.94 8.22,3.18 12.61,3.64 1.28,0.26 2.52,0.44 3.82,0.56 5.89,0.48 10.46,-0.07 16.12,-1.76 5.72,-1.9 9.83,-4.15 14.59,-7.85 4.86,-4.03 8.01,-7.74 11.29,-13.15 3.05,-5.38 4.73,-9.91 5.8,-16 0.85,-5.61 0.8,-10.08 -0.31,-15.65 -1.17,-5.19 -2.75,-9.02 -5.74,-13.44 -3.06,-4.23 -6,-6.94 -10.48,-9.61 -4.48,-2.46 -8.17,-3.61 -13.25,-4.08 -4.99,-0.31 -8.82,0.2 -13.56,1.71 -1.46,0.19 -6.35,2.78 -7.81,3.69 -1.61,1.03 -3.03,2.06 -4.51,3.27 -4.12,3.54 -6.81,6.74 -9.64,11.38 -2.66,4.64 -4.14,8.47 -5.21,13.69 -0.86,4.81 -0.97,8.62 -0.38,13.45 -0.03,0.46 0.34,2.18 0.43,2.77 0.08,0.5 0.15,1 0.22,1.5 0.62,2.62 1.31,5.18 2.11,7.76 0.03,0.12 0.18,0.5 0.19,0.6 0.09,0.66 1.63,3.86 1.99,4.87 0.03,0.07 0.07,0.14 0.1,0.2 0.06,0.13 1.12,2.09 1.12,2.09 0,0.01 0.01,0.31 0.01,0.33 0.22,0.51 0.4,1.03 -0.23,1.3 -0.03,0.02 -0.05,0.05 -0.08,0.08z"/>
   </g>
   <ellipse class="fil1" transform="matrix(1.23006 0.800799 0.800799 -1.23006 933.653 229.764)" rx="27.5" ry="30.5"/>
   <g>
    <path class="fil5" d="M937.86 222.4c-0.06,-0.1 -0.18,-0.25 -0.04,-0.33 0.09,-0.08 0.13,-0.22 0.15,-0.33 -0.01,-0.04 -0.03,-0.07 -0.04,-0.11 -0.05,-0.09 -0.15,-0.26 -0.14,-0.37 -0.04,-0.08 -0.09,-0.19 -0.05,-0.28 0.11,-0.22 0.62,0.02 0.79,0.07 0.78,0.25 1.42,0.98 1.91,1.59 0.24,0.2 0.8,1.31 0.93,1.62 0.2,0.47 0.33,0.88 0.43,1.38 0.14,0.76 0.17,1.37 0.08,2.13 -0.02,0.45 -0.07,0.84 -0.15,1.28 -0.27,1.29 -0.66,2.21 -1.37,3.32 0,0 0,0 0,0 -0.73,1.08 -1.43,1.82 -2.48,2.6 -1.01,0.72 -1.89,1.14 -3.09,1.47 -1.18,0.29 -2.12,0.36 -3.33,0.2 -1.24,-0.19 -2.13,-0.53 -3.19,-1.2 -1.04,-0.71 -1.7,-1.39 -2.37,-2.45 -0.61,-1.04 -0.93,-1.94 -1.11,-3.13 -0.03,-0.08 -0.05,-0.49 -0.06,-0.59 -0.05,-1 0.03,-1.8 0.26,-2.77 0.31,-1.23 0.73,-2.14 1.44,-3.2 0.73,-1.03 1.42,-1.73 2.46,-2.45 0.98,-0.65 1.83,-1.03 2.98,-1.3 0.08,-0.03 0.46,-0.09 0.57,-0.1 0.92,-0.12 1.64,-0.1 2.55,0.09 1.02,0.27 1.94,0.66 2.74,1.37 -0.69,-0.34 -1.42,-0.55 -2.18,-0.63 -0.22,-0.04 -0.43,-0.07 -0.65,-0.09 -1.02,-0.09 -1.8,0.01 -2.78,0.3 -0.98,0.33 -1.69,0.72 -2.51,1.35 -0.84,0.69 -1.38,1.34 -1.95,2.27 -0.52,0.93 -0.81,1.7 -1,2.75 -0.14,0.97 -0.13,1.74 0.06,2.7 0.2,0.89 0.47,1.55 0.99,2.31 0.53,0.73 1.03,1.2 1.8,1.66 0.77,0.42 1.41,0.62 2.28,0.7 0.86,0.05 1.52,-0.03 2.34,-0.29 0.25,-0.04 1.09,-0.48 1.35,-0.64 0.27,-0.18 0.52,-0.36 0.77,-0.56 0.71,-0.61 1.18,-1.17 1.66,-1.96 0.46,-0.8 0.72,-1.46 0.9,-2.36 0.15,-0.83 0.17,-1.48 0.07,-2.32 0,-0.07 -0.06,-0.37 -0.08,-0.47 -0.01,-0.09 -0.02,-0.18 -0.04,-0.26 -0.1,-0.45 -0.22,-0.9 -0.36,-1.34 -0.01,-0.02 -0.03,-0.09 -0.03,-0.1 -0.02,-0.12 -0.28,-0.67 -0.35,-0.84 0,-0.01 -0.01,-0.02 -0.01,-0.04 -0.01,-0.02 -0.2,-0.36 -0.2,-0.36 0,0 0,-0.05 0,-0.05 -0.04,-0.09 -0.07,-0.18 0.04,-0.23 0.01,0 0.01,-0.01 0.01,-0.01z"/>
   </g>
   <ellipse class="fil1" transform="matrix(-0.211872 -0.137934 -0.137934 0.211872 933.269 227.756)" rx="27.5" ry="30.5"/>
   <g>
    <path class="fil5" d="M728.07 260.86c0.36,0.6 1.04,1.46 0.28,1.94 -0.57,0.47 -0.76,1.22 -0.89,1.9 0.07,0.2 0.14,0.41 0.21,0.61 0.29,0.52 0.87,1.55 0.84,2.14 0.21,0.5 0.53,1.13 0.27,1.66 -0.62,1.24 -3.62,-0.11 -4.57,-0.41 -4.58,-1.46 -8.21,-5.63 -11.12,-9.23 -1.37,-1.16 -4.63,-7.6 -5.39,-9.39 -1.13,-2.73 -1.88,-5.15 -2.48,-8.04 -0.81,-4.39 -1,-7.96 -0.49,-12.39 0.13,-2.55 0.41,-4.89 0.89,-7.4 1.55,-7.47 3.84,-12.85 7.97,-19.28 4.24,-6.28 8.31,-10.56 14.4,-15.1 5.89,-4.16 10.94,-6.58 17.9,-8.51 6.86,-1.71 12.35,-2.09 19.37,-1.19 7.17,1.14 12.39,3.1 18.52,6.99 6,4.1 9.86,8.07 13.73,14.21 3.55,6.08 5.41,11.23 6.46,18.17 0.15,0.44 0.31,2.82 0.34,3.46 0.28,5.8 -0.18,10.37 -1.48,16.05 -1.85,7.18 -4.24,12.4 -8.36,18.57 -4.25,5.98 -8.27,10.04 -14.28,14.24 -5.74,3.78 -10.64,5.99 -17.33,7.53 -0.46,0.2 -2.69,0.51 -3.32,0.6 -5.34,0.67 -9.51,0.55 -14.76,-0.56 -5.93,-1.53 -11.31,-3.8 -15.91,-7.92 3.96,1.94 8.21,3.18 12.6,3.64 1.29,0.26 2.52,0.44 3.83,0.56 5.88,0.48 10.45,-0.07 16.11,-1.76 5.72,-1.9 9.83,-4.15 14.59,-7.85 4.87,-4.03 8.01,-7.74 11.29,-13.15 3.05,-5.38 4.73,-9.91 5.8,-16 0.85,-5.61 0.81,-10.08 -0.31,-15.65 -1.17,-5.19 -2.75,-9.02 -5.74,-13.44 -3.06,-4.23 -5.99,-6.94 -10.48,-9.61 -4.48,-2.46 -8.16,-3.61 -13.25,-4.08 -4.99,-0.31 -8.81,0.2 -13.56,1.71 -1.46,0.19 -6.34,2.78 -7.81,3.69 -1.61,1.03 -3.03,2.06 -4.51,3.27 -4.11,3.54 -6.81,6.74 -9.63,11.38 -2.66,4.64 -4.15,8.47 -5.22,13.69 -0.86,4.81 -0.97,8.62 -0.38,13.45 -0.02,0.46 0.34,2.18 0.43,2.77 0.09,0.5 0.15,1 0.23,1.5 0.61,2.62 1.31,5.18 2.1,7.76 0.04,0.12 0.18,0.5 0.19,0.6 0.09,0.66 1.64,3.86 1.99,4.87 0.04,0.07 0.07,0.14 0.11,0.2 0.06,0.13 1.12,2.09 1.12,2.09 0,0.01 0,0.31 0,0.33 0.23,0.51 0.41,1.03 -0.23,1.3 -0.02,0.02 -0.05,0.05 -0.07,0.08z"/>
   </g>
   <ellipse class="fil1" transform="matrix(1.23006 0.800799 0.800799 -1.23006 754.745 229.764)" rx="27.5" ry="30.5"/>
   <g>
    <path class="fil5" d="M758.96 222.4c-0.07,-0.1 -0.18,-0.25 -0.05,-0.33 0.1,-0.08 0.13,-0.22 0.15,-0.33 -0.01,-0.04 -0.02,-0.07 -0.03,-0.11 -0.05,-0.09 -0.16,-0.26 -0.15,-0.37 -0.04,-0.08 -0.09,-0.19 -0.05,-0.28 0.11,-0.22 0.63,0.02 0.79,0.07 0.78,0.25 1.42,0.98 1.92,1.59 0.23,0.2 0.79,1.31 0.92,1.62 0.2,0.47 0.33,0.88 0.43,1.38 0.14,0.76 0.17,1.37 0.09,2.13 -0.03,0.45 -0.07,0.84 -0.16,1.28 -0.26,1.29 -0.66,2.21 -1.37,3.32 0,0 0,0 0,0 -0.73,1.08 -1.43,1.82 -2.48,2.6 -1.01,0.72 -1.89,1.14 -3.08,1.47 -1.19,0.29 -2.13,0.36 -3.34,0.2 -1.24,-0.19 -2.13,-0.53 -3.19,-1.2 -1.03,-0.71 -1.7,-1.39 -2.36,-2.45 -0.62,-1.04 -0.94,-1.94 -1.12,-3.13 -0.02,-0.08 -0.05,-0.49 -0.06,-0.59 -0.04,-1 0.03,-1.8 0.26,-2.77 0.32,-1.23 0.73,-2.14 1.44,-3.2 0.73,-1.03 1.42,-1.73 2.46,-2.45 0.99,-0.65 1.83,-1.03 2.98,-1.3 0.08,-0.03 0.47,-0.09 0.58,-0.1 0.91,-0.12 1.64,-0.1 2.54,0.09 1.02,0.27 1.95,0.66 2.74,1.37 -0.68,-0.34 -1.42,-0.55 -2.17,-0.63 -0.23,-0.04 -0.43,-0.07 -0.66,-0.09 -1.01,-0.09 -1.8,0.01 -2.78,0.3 -0.98,0.33 -1.69,0.72 -2.51,1.35 -0.84,0.69 -1.38,1.34 -1.94,2.27 -0.53,0.93 -0.82,1.7 -1,2.75 -0.15,0.97 -0.14,1.74 0.05,2.7 0.2,0.89 0.47,1.55 0.99,2.31 0.53,0.73 1.03,1.2 1.8,1.66 0.77,0.42 1.41,0.62 2.29,0.7 0.86,0.05 1.51,-0.03 2.33,-0.29 0.25,-0.04 1.1,-0.48 1.35,-0.64 0.27,-0.18 0.52,-0.36 0.77,-0.56 0.71,-0.61 1.18,-1.17 1.66,-1.96 0.46,-0.8 0.72,-1.46 0.9,-2.36 0.15,-0.83 0.17,-1.48 0.07,-2.32 0,-0.07 -0.06,-0.37 -0.08,-0.47 -0.01,-0.09 -0.02,-0.18 -0.04,-0.26 -0.1,-0.45 -0.22,-0.9 -0.36,-1.34 0,-0.02 -0.03,-0.09 -0.03,-0.1 -0.02,-0.12 -0.28,-0.67 -0.34,-0.84 -0.01,-0.01 -0.02,-0.02 -0.02,-0.04 -0.01,-0.02 -0.2,-0.36 -0.2,-0.36 0,0 0,-0.05 0,-0.05 -0.04,-0.09 -0.07,-0.18 0.04,-0.23 0.01,0 0.01,-0.01 0.02,-0.01z"/>
   </g>
   <ellipse class="fil1" transform="matrix(-0.211872 -0.137934 -0.137934 0.211872 754.362 227.756)" rx="27.5" ry="30.5"/>
  </g>
  <g id="_2779454206496">
   <g>
    <g style="clip-path:url(#id0)">
     <polygon class="fil6" points="15.03,291.75 15.03,290.97 684.28,291.13 684.28,291.92 "/>
     <polygon id="1" class="fil7" points="15.03,291.44 15.03,290.02 684.28,290.18 684.28,291.6 "/>
     <polygon id="2" class="fil8" points="15.03,290.49 15.03,289.07 684.28,289.24 684.28,290.66 "/>
     <polygon id="3" class="fil9" points="15.03,289.55 15.03,288.12 684.28,288.29 684.28,289.71 "/>
     <polygon id="4" class="fil10" points="15.03,288.6 15.03,287.17 684.28,287.34 684.28,288.76 "/>
     <polygon id="5" class="fil11" points="15.03,287.65 15.03,286.23 684.28,286.39 684.28,287.81 "/>
     <polygon id="6" class="fil12" points="15.03,286.7 15.03,285.28 684.28,285.44 684.28,286.87 "/>
     <polygon id="7" class="fil13" points="15.03,285.75 15.03,284.33 684.28,284.5 684.28,285.92 "/>
     <polygon id="8" class="fil14" points="15.03,284.81 15.03,283.38 684.28,283.55 684.28,284.97 "/>
     <polygon id="9" class="fil15" points="15.03,283.86 15.03,282.43 684.28,282.6 684.28,284.02 "/>
     <polygon id="10" class="fil16" points="15.03,282.91 15.03,281.49 684.28,281.65 684.28,283.07 "/>
     <polygon id="11" class="fil17" points="15.03,281.96 15.03,280.54 684.28,280.7 684.28,282.13 "/>
     <polygon id="12" class="fil18" points="15.03,281.01 15.03,279.59 684.28,279.76 684.28,281.18 "/>
     <polygon id="13" class="fil19" points="15.03,280.07 15.03,278.64 684.28,278.81 684.28,280.23 "/>
     <polygon id="14" class="fil20" points="15.03,279.12 15.03,277.7 684.28,277.86 684.28,279.28 "/>
     <polygon id="15" class="fil21" points="15.03,278.17 15.03,276.75 684.28,276.91 684.28,278.34 "/>
     <polygon id="16" class="fil22" points="15.03,277.22 15.03,275.8 684.28,275.96 684.28,277.39 "/>
     <polygon id="17" class="fil23" points="15.03,276.27 15.03,274.85 684.28,275.02 684.28,276.44 "/>
     <polygon id="18" class="fil24" points="15.03,275.33 15.03,273.9 684.28,274.07 684.28,275.49 "/>
     <polygon id="19" class="fil25" points="15.03,274.38 15.03,272.96 684.28,273.12 684.28,274.54 "/>
     <polygon id="20" class="fil26" points="15.03,273.43 15.03,272.01 684.28,272.17 684.28,273.6 "/>
     <polygon id="21" class="fil27" points="15.03,272.48 15.03,271.06 684.28,271.23 684.28,272.65 "/>
     <polygon id="22" class="fil28" points="15.03,271.53 15.03,270.11 684.28,270.28 684.28,271.7 "/>
     <polygon id="23" class="fil29" points="15.03,270.59 15.03,269.17 684.28,269.33 684.28,270.75 "/>
     <polygon id="24" class="fil30" points="15.03,269.64 15.03,268.22 684.28,268.38 684.28,269.8 "/>
     <polygon id="25" class="fil31" points="15.03,268.69 15.03,267.27 684.28,267.43 684.28,268.86 "/>
     <polygon id="26" class="fil32" points="15.03,267.74 15.03,266.32 684.28,266.49 684.28,267.91 "/>
     <polygon id="27" class="fil33" points="15.03,266.8 15.03,265.37 684.28,265.54 684.28,266.96 "/>
     <polygon id="28" class="fil34" points="15.03,265.85 15.03,264.43 684.28,264.59 684.28,266.01 "/>
     <polygon id="29" class="fil35" points="15.03,264.9 15.03,263.48 684.28,263.64 684.28,265.06 "/>
     <polygon id="30" class="fil36" points="15.03,263.95 15.03,262.53 684.28,262.7 684.28,264.12 "/>
     <polygon id="31" class="fil37" points="15.03,263 15.04,261.58 684.28,261.75 684.28,263.17 "/>
     <polygon id="32" class="fil38" points="15.03,262.06 15.04,260.63 684.28,260.8 684.28,262.22 "/>
     <polygon id="33" class="fil39" points="15.04,261.11 15.04,259.69 684.28,259.85 684.28,261.27 "/>
     <polygon id="34" class="fil40" points="15.04,260.16 15.04,258.74 684.28,258.9 684.28,260.32 "/>
     <polygon id="35" class="fil41" points="15.04,259.21 15.04,257.79 684.28,257.96 684.28,259.38 "/>
     <polygon id="36" class="fil42" points="15.04,258.26 15.04,256.84 684.28,257.01 684.28,258.43 "/>
     <polygon id="37" class="fil43" points="15.04,257.32 15.04,255.89 684.28,256.06 684.28,257.48 "/>
     <polygon id="38" class="fil44" points="15.04,256.37 15.04,254.95 684.28,255.11 684.28,256.53 "/>
     <polygon id="39" class="fil45" points="15.04,255.42 15.04,254 684.28,254.16 684.28,255.59 "/>
     <polygon id="40" class="fil46" points="15.04,254.47 15.04,253.05 684.29,253.22 684.28,254.64 "/>
     <polygon id="41" class="fil47" points="15.04,253.53 15.04,252.1 684.29,252.27 684.29,253.69 "/>
     <polygon id="42" class="fil48" points="15.04,252.58 15.04,251.16 684.29,251.32 684.29,252.74 "/>
     <polygon id="43" class="fil49" points="15.04,251.63 15.04,250.21 684.29,250.37 684.29,251.79 "/>
     <polygon id="44" class="fil50" points="15.04,250.68 15.04,249.26 684.29,249.42 684.29,250.85 "/>
     <polygon id="45" class="fil51" points="15.04,249.73 15.04,248.31 684.29,248.48 684.29,249.9 "/>
     <polygon id="46" class="fil52" points="15.04,248.79 15.04,247.36 684.29,247.53 684.29,248.95 "/>
     <polygon id="47" class="fil53" points="15.04,247.84 15.04,246.42 684.29,246.58 684.29,248 "/>
     <polygon id="48" class="fil54" points="15.04,246.89 15.04,245.47 684.29,245.63 684.29,247.05 "/>
     <polygon id="49" class="fil55" points="15.04,245.94 15.04,244.52 684.29,244.68 684.29,246.11 "/>
     <polygon id="50" class="fil56" points="15.04,244.99 15.04,243.57 684.29,243.74 684.29,245.16 "/>
     <polygon id="51" class="fil57" points="15.04,244.05 15.04,242.62 684.29,242.79 684.29,244.21 "/>
     <polygon id="52" class="fil58" points="15.04,243.1 15.04,241.68 684.29,241.84 684.29,243.26 "/>
     <polygon id="53" class="fil59" points="15.04,242.15 15.04,240.73 684.29,240.89 684.29,242.32 "/>
     <polygon id="54" class="fil60" points="15.04,241.2 15.04,239.78 684.29,239.95 684.29,241.37 "/>
     <polygon id="55" class="fil61" points="15.04,240.25 15.04,238.83 684.29,239 684.29,240.42 "/>
     <polygon id="56" class="fil62" points="15.04,239.31 15.04,237.88 684.29,238.05 684.29,239.47 "/>
     <polygon id="57" class="fil63" points="15.04,238.36 15.04,236.94 684.29,237.1 684.29,238.52 "/>
     <polygon id="58" class="fil64" points="15.04,237.41 15.04,235.99 684.29,236.15 684.29,237.58 "/>
     <polygon id="59" class="fil65" points="15.04,236.46 15.04,235.04 684.29,235.21 684.29,236.63 "/>
     <polygon id="60" class="fil66" points="15.04,235.52 15.04,234.09 684.29,234.26 684.29,235.68 "/>
     <polygon id="61" class="fil67" points="15.04,234.57 15.04,233.15 684.29,233.31 684.29,234.73 "/>
     <polygon id="62" class="fil68" points="15.04,233.62 15.04,232.2 684.29,232.36 684.29,233.78 "/>
     <polygon id="63" class="fil69" points="15.04,232.67 15.04,231.25 684.29,231.41 684.29,232.84 "/>
     <polygon id="64" class="fil70" points="15.04,231.72 15.04,230.3 684.29,230.47 684.29,231.89 "/>
     <polygon id="65" class="fil71" points="15.04,230.78 15.04,229.35 684.29,229.52 684.29,230.94 "/>
     <polygon id="66" class="fil72" points="15.04,229.83 15.04,228.41 684.29,228.57 684.29,229.99 "/>
     <polygon id="67" class="fil73" points="15.04,228.88 15.04,227.46 684.29,227.62 684.29,229.04 "/>
     <polygon id="68" class="fil74" points="15.04,227.93 15.04,226.51 684.29,226.67 684.29,228.1 "/>
     <polygon id="69" class="fil75" points="15.04,226.98 15.04,225.56 684.29,225.73 684.29,227.15 "/>
     <polygon id="70" class="fil76" points="15.04,226.04 15.04,224.61 684.29,224.78 684.29,226.2 "/>
     <polygon id="71" class="fil77" points="15.04,225.09 15.04,223.67 684.29,223.83 684.29,225.25 "/>
     <polygon id="72" class="fil78" points="15.04,224.14 15.04,222.72 684.29,222.88 684.29,224.31 "/>
     <polygon id="73" class="fil79" points="15.04,223.19 15.04,221.77 684.29,221.94 684.29,223.36 "/>
     <polygon id="74" class="fil80" points="15.04,222.24 15.04,220.82 684.29,220.99 684.29,222.41 "/>
     <polygon id="75" class="fil81" points="15.04,221.3 15.04,219.88 684.29,220.04 684.29,221.46 "/>
     <polygon id="76" class="fil82" points="15.04,220.35 15.04,218.93 684.29,219.09 684.29,220.51 "/>
     <polygon id="77" class="fil83" points="15.04,219.4 15.05,217.98 684.29,218.14 684.29,219.57 "/>
     <polygon id="78" class="fil84" points="15.05,218.45 15.05,217.03 684.29,217.2 684.29,218.62 "/>
     <polygon id="79" class="fil85" points="15.05,217.5 15.05,216.08 684.29,216.25 684.29,217.67 "/>
     <polygon id="80" class="fil86" points="15.05,216.56 15.05,215.14 684.29,215.3 684.29,216.72 "/>
     <polygon id="81" class="fil87" points="15.05,215.61 15.05,214.19 684.29,214.35 684.29,215.77 "/>
     <polygon id="82" class="fil88" points="15.05,214.66 15.05,213.24 684.29,213.4 684.29,214.83 "/>
     <polygon id="83" class="fil89" points="15.05,213.71 15.05,212.29 684.29,212.46 684.29,213.88 "/>
     <polygon id="84" class="fil90" points="15.05,212.77 15.05,211.34 684.29,211.51 684.29,212.93 "/>
     <polygon id="85" class="fil91" points="15.05,211.82 15.05,210.4 684.3,210.56 684.29,211.98 "/>
     <polygon id="86" class="fil92" points="15.05,210.87 15.05,209.45 684.3,209.61 684.29,211.03 "/>
     <polygon id="87" class="fil93" points="15.05,209.92 15.05,208.5 684.3,208.67 684.3,210.09 "/>
     <polygon id="88" class="fil94" points="15.05,208.97 15.05,207.55 684.3,207.72 684.3,209.14 "/>
     <polygon id="89" class="fil95" points="15.05,208.03 15.05,206.6 684.3,206.77 684.3,208.19 "/>
     <polygon id="90" class="fil96" points="15.05,207.08 15.05,205.66 684.3,205.82 684.3,207.24 "/>
     <polygon id="91" class="fil97" points="15.05,206.13 15.05,204.71 684.3,204.87 684.3,206.3 "/>
     <polygon id="92" class="fil98" points="15.05,205.18 15.05,203.76 684.3,203.93 684.3,205.35 "/>
     <polygon id="93" class="fil99" points="15.05,204.24 15.05,202.81 684.3,202.98 684.3,204.4 "/>
     <polygon id="94" class="fil100" points="15.05,203.29 15.05,201.86 684.3,202.03 684.3,203.45 "/>
     <polygon id="95" class="fil101" points="15.05,202.34 15.05,200.92 684.3,201.08 684.3,202.5 "/>
     <polygon id="96" class="fil102" points="15.05,201.39 15.05,199.97 684.3,200.13 684.3,201.56 "/>
     <polygon id="97" class="fil103" points="15.05,200.44 15.05,199.02 684.3,199.19 684.3,200.61 "/>
     <polygon id="98" class="fil104" points="15.05,199.5 15.05,198.07 684.3,198.24 684.3,199.66 "/>
     <polygon id="99" class="fil105" points="15.05,198.55 15.05,197.13 684.3,197.29 684.3,198.71 "/>
     <polygon id="100" class="fil106" points="15.05,197.6 15.05,196.18 684.3,196.34 684.3,197.77 "/>
     <polygon id="101" class="fil107" points="15.05,196.65 15.05,195.23 684.3,195.39 684.3,196.82 "/>
     <polygon id="102" class="fil108" points="15.05,195.7 15.05,194.28 684.3,194.45 684.3,195.87 "/>
     <polygon id="103" class="fil109" points="15.05,194.76 15.05,193.33 684.3,193.5 684.3,194.92 "/>
     <polygon id="104" class="fil110" points="15.05,193.81 15.05,192.39 684.3,192.55 684.3,193.97 "/>
     <polygon id="105" class="fil111" points="15.05,192.86 15.05,191.44 684.3,191.6 684.3,193.03 "/>
     <polygon id="106" class="fil112" points="15.05,191.91 15.05,190.49 684.3,190.65 684.3,192.08 "/>
     <polygon id="107" class="fil113" points="15.05,190.96 15.05,189.54 684.3,189.71 684.3,191.13 "/>
     <polygon id="108" class="fil114" points="15.05,190.02 15.05,188.6 684.3,188.76 684.3,190.18 "/>
     <polygon id="109" class="fil115" points="15.05,189.07 15.05,187.65 684.3,187.81 684.3,189.23 "/>
     <polygon id="110" class="fil116" points="15.05,188.12 15.05,186.7 684.3,186.86 684.3,188.29 "/>
     <polygon id="111" class="fil117" points="15.05,187.17 15.05,185.75 684.3,185.92 684.3,187.34 "/>
     <polygon id="112" class="fil118" points="15.05,186.23 15.05,184.8 684.3,184.97 684.3,186.39 "/>
     <polygon id="113" class="fil119" points="15.05,185.28 15.05,183.86 684.3,184.02 684.3,185.44 "/>
     <polygon id="114" class="fil120" points="15.05,184.33 15.05,182.91 684.3,183.07 684.3,184.49 "/>
     <polygon id="115" class="fil121" points="15.05,183.38 15.05,181.96 684.3,182.12 684.3,183.55 "/>
     <polygon id="116" class="fil122" points="15.05,182.43 15.05,181.01 684.3,181.18 684.3,182.6 "/>
     <polygon id="117" class="fil123" points="15.05,181.49 15.06,180.06 684.3,180.23 684.3,181.65 "/>
     <polygon id="118" class="fil124" points="15.05,180.54 15.06,179.12 684.3,179.28 684.3,180.7 "/>
     <polygon id="119" class="fil125" points="15.06,179.59 15.06,178.17 684.3,178.33 684.3,179.75 "/>
     <polygon id="120" class="fil126" points="15.06,178.64 15.06,177.22 684.3,177.39 684.3,178.81 "/>
     <polygon id="121" class="fil127" points="15.06,177.69 15.06,176.27 684.3,176.44 684.3,177.86 "/>
     <polygon id="122" class="fil128" points="15.06,176.75 15.06,175.32 684.3,175.49 684.3,176.91 "/>
     <polygon id="123" class="fil129" points="15.06,175.8 15.06,174.38 684.3,174.54 684.3,175.96 "/>
     <polygon id="124" class="fil130" points="15.06,174.85 15.06,173.43 684.3,173.59 684.3,175.02 "/>
     <polygon id="125" class="fil131" points="15.06,173.9 15.06,172.48 684.3,172.65 684.3,174.07 "/>
     <polygon id="126" class="fil132" points="15.06,172.95 15.06,171.53 684.31,171.7 684.3,173.12 "/>
     <polygon id="127" class="fil133" points="15.06,172.01 15.06,170.59 684.31,170.75 684.31,172.17 "/>
     <polygon id="128" class="fil134" points="15.06,171.06 15.06,169.64 684.31,169.8 684.31,171.22 "/>
     <polygon id="129" class="fil135" points="15.06,170.11 15.06,168.69 684.31,168.85 684.31,170.28 "/>
     <polygon id="130" class="fil136" points="15.06,169.16 15.06,167.74 684.31,167.91 684.31,169.33 "/>
     <polygon id="131" class="fil137" points="15.06,168.22 15.06,166.79 684.31,166.96 684.31,168.38 "/>
     <polygon id="132" class="fil138" points="15.06,167.27 15.06,165.85 684.31,166.01 684.31,167.43 "/>
     <polygon id="133" class="fil139" points="15.06,166.32 15.06,164.9 684.31,165.06 684.31,166.48 "/>
     <polygon id="134" class="fil140" points="15.06,165.37 15.06,163.95 684.31,164.11 684.31,165.54 "/>
     <polygon id="135" class="fil141" points="15.06,164.42 15.06,163 684.31,163.17 684.31,164.59 "/>
     <polygon id="136" class="fil142" points="15.06,163.48 15.06,162.05 684.31,162.22 684.31,163.64 "/>
     <polygon id="137" class="fil143" points="15.06,162.53 15.06,161.11 684.31,161.27 684.31,162.69 "/>
     <polygon id="138" class="fil144" points="15.06,161.58 15.06,160.16 684.31,160.32 684.31,161.75 "/>
     <polygon id="139" class="fil144" points="15.06,160.63 15.06,159.21 684.31,159.38 684.31,160.8 "/>
     <polygon id="140" class="fil145" points="15.06,159.68 15.06,158.26 684.31,158.43 684.31,159.85 "/>
     <polygon id="141" class="fil146" points="15.06,158.74 15.06,157.31 684.31,157.48 684.31,158.9 "/>
     <polygon id="142" class="fil147" points="15.06,157.79 15.06,156.37 684.31,156.53 684.31,157.95 "/>
     <polygon id="143" class="fil148" points="15.06,156.84 15.06,155.42 684.31,155.58 684.31,157.01 "/>
     <polygon id="144" class="fil148" points="15.06,155.89 15.06,154.47 684.31,154.64 684.31,156.06 "/>
     <polygon id="145" class="fil149" points="15.06,154.95 15.06,153.52 684.31,153.69 684.31,155.11 "/>
     <polygon id="146" class="fil150" points="15.06,154 15.06,152.57 684.31,152.74 684.31,154.16 "/>
     <polygon id="147" class="fil150" points="15.06,153.05 15.06,151.63 684.31,151.79 684.31,153.21 "/>
     <polygon id="148" class="fil151" points="15.06,152.1 15.06,150.68 684.31,150.84 684.31,152.27 "/>
     <polygon id="149" class="fil152" points="15.06,151.15 15.06,149.73 684.31,149.9 684.31,151.32 "/>
     <polygon id="150" class="fil152" points="15.06,150.21 15.06,148.78 684.31,148.95 684.31,150.37 "/>
     <polygon id="151" class="fil153" points="15.06,149.26 15.06,147.84 684.31,148 684.31,149.42 "/>
     <polygon id="152" class="fil154" points="15.06,148.31 15.06,146.89 684.31,147.05 684.31,148.47 "/>
     <polygon id="153" class="fil154" points="15.06,147.36 15.06,145.94 684.31,146.1 684.31,147.53 "/>
     <polygon id="154" class="fil155" points="15.06,146.41 15.06,144.99 684.31,145.16 684.31,146.58 "/>
     <polygon id="155" class="fil156" points="15.06,145.47 15.06,144.04 684.31,144.21 684.31,145.63 "/>
     <polygon id="156" class="fil157" points="15.06,144.52 15.06,143.1 684.31,143.26 684.31,144.68 "/>
     <polygon id="157" class="fil158" points="15.06,143.57 15.06,142.15 684.31,142.31 684.31,143.74 "/>
     <polygon id="158" class="fil158" points="15.06,142.62 15.06,141.2 684.31,141.37 684.31,142.79 "/>
     <polygon id="159" class="fil159" points="15.06,141.67 15.06,140.25 684.31,140.42 684.31,141.84 "/>
     <polygon id="160" class="fil160" points="15.06,140.73 15.06,139.31 684.31,139.47 684.31,140.89 "/>
     <polygon id="161" class="fil161" points="15.06,139.78 15.06,138.36 684.31,138.52 684.31,139.94 "/>
     <polygon id="162" class="fil161" points="15.06,138.83 15.06,137.41 684.31,137.57 684.31,139 "/>
     <polygon id="163" class="fil162" points="15.06,137.88 15.07,136.46 684.31,136.63 684.31,138.05 "/>
     <polygon id="164" class="fil163" points="15.07,136.93 15.07,135.51 684.31,135.68 684.31,137.1 "/>
     <polygon id="165" class="fil164" points="15.07,135.99 15.07,134.57 684.31,134.73 684.31,136.15 "/>
     <polygon id="166" class="fil164" points="15.07,135.04 15.07,133.62 684.31,133.78 684.31,135.2 "/>
     <polygon id="167" class="fil165" points="15.07,134.09 15.07,132.67 684.31,132.83 684.31,134.26 "/>
     <polygon id="168" class="fil166" points="15.07,133.14 15.07,131.72 684.31,131.89 684.31,133.31 "/>
     <polygon id="169" class="fil167" points="15.07,132.2 15.07,130.77 684.31,130.94 684.31,132.36 "/>
     <polygon id="170" class="fil167" points="15.07,131.25 15.07,129.83 684.31,129.99 684.31,131.41 "/>
     <polygon id="171" class="fil167" points="15.07,130.3 15.07,128.88 684.32,129.04 684.31,130.46 "/>
     <polygon id="172" class="fil168" points="15.07,129.35 15.07,127.93 684.32,128.1 684.31,129.52 "/>
     <polygon id="173" class="fil168" points="15.07,128.4 15.07,126.98 684.32,127.15 684.32,128.57 "/>
     <polygon id="174" class="fil169" points="15.07,127.46 15.07,126.03 684.32,126.2 684.32,127.62 "/>
     <polygon id="175" class="fil170" points="15.07,126.51 15.07,125.09 684.32,125.25 684.32,126.67 "/>
     <polygon id="176" class="fil171" points="15.07,125.56 15.07,124.14 684.32,124.3 684.32,125.72 "/>
     <polygon id="177" class="fil171" points="15.07,124.61 15.07,123.19 684.32,123.36 684.32,124.78 "/>
     <polygon id="178" class="fil171" points="15.07,123.67 15.07,122.24 684.32,122.41 684.32,123.83 "/>
     <polygon id="179" class="fil172" points="15.07,122.72 15.07,121.29 684.32,121.46 684.32,122.88 "/>
     <polygon id="180" class="fil172" points="15.07,121.77 15.07,120.35 684.32,120.51 684.32,121.93 "/>
     <polygon id="181" class="fil173" points="15.07,120.82 15.07,119.4 684.32,119.56 684.32,120.99 "/>
     <polygon id="182" class="fil173" points="15.07,119.87 15.07,118.45 684.32,118.62 684.32,120.04 "/>
     <polygon id="183" class="fil173" points="15.07,118.93 15.07,117.5 684.32,117.67 684.32,119.09 "/>
     <polygon id="184" class="fil174" points="15.07,117.98 15.07,116.56 684.32,116.72 684.32,118.14 "/>
     <polygon id="185" class="fil174" points="15.07,117.03 15.07,115.61 684.32,115.77 684.32,117.19 "/>
     <polygon id="186" class="fil174" points="15.07,116.08 15.07,114.66 684.32,114.82 684.32,116.25 "/>
     <polygon id="187" class="fil174" points="15.07,115.13 15.07,113.71 684.32,113.88 684.32,115.3 "/>
     <polygon id="188" class="fil174" points="15.07,114.19 15.07,112.76 684.32,112.93 684.32,114.35 "/>
     <polygon id="189" class="fil174" points="15.07,113.24 15.07,111.82 684.32,111.98 684.32,113.4 "/>
     <polygon id="190" class="fil174" points="15.07,112.29 15.07,110.87 684.32,111.03 684.32,112.46 "/>
     <polygon id="191" class="fil174" points="15.07,111.34 15.09,49.95 684.33,50.12 684.32,111.51 "/>
    </g>
   </g>
   <path class="fil175" d="M455.71 112.8c-10.89,2.73 -18.29,15.11 -16.54,27.64 1.76,12.54 12.02,20.48 22.91,17.74 10.89,-2.73 18.29,-15.11 16.53,-27.64 -1.76,-12.54 -12.01,-20.48 -22.9,-17.74z"/>
  </g>
 </g>
</svg>
